<?xml version="1.0" encoding="utf-8"?>
<!-- Generator: Adobe Illustrator 25.4.0, SVG Export Plug-In . SVG Version: 6.00 Build 0)  -->
<svg version="1.1" id="Layer_1" xmlns="http://www.w3.org/2000/svg" xmlns:xlink="http://www.w3.org/1999/xlink" x="0px" y="0px"
	 viewBox="0 0 1024 1024" style="enable-background:new 0 0 1024 1024;" xml:space="preserve">
<style type="text/css">
	.st0{fill:#33CC99;stroke:#F3F3F3;stroke-width:50;}
</style>
<path class="st0" d="M498,218.6h350.4c43,0,77.9,34.9,77.9,77.9v545.1c0,43-34.9,77.9-77.9,77.9H498c-43,0-77.9-34.9-77.9-77.9
	V296.4C420.2,253.4,455,218.6,498,218.6z"/>
<path class="st0" d="M140.8,198.1l338.5-90.7c41.5-11.1,84.2,13.5,95.4,55.1l141.1,526.5c11.1,41.5-13.5,84.2-55.1,95.4L322.2,875
	c-41.5,11.1-84.2-13.5-95.4-55.1L85.7,293.4C74.6,251.9,99.2,209.2,140.8,198.1z"/>
</svg>
