<?xml version="1.0" encoding="utf-8"?>
<!-- Generator: Adobe Illustrator 25.4.0, SVG Export Plug-In . SVG Version: 6.00 Build 0)  -->
<svg version="1.1" id="Layer_1" xmlns="http://www.w3.org/2000/svg" xmlns:xlink="http://www.w3.org/1999/xlink" x="0px" y="0px"
	 viewBox="0 0 48 48" style="enable-background:new 0 0 48 48;" xml:space="preserve">
<style type="text/css">
	.st0{fill:#FF615F;}
</style>
<path class="st0" d="M0,36v-2.7c0-1.3,0.7-2.3,2.1-3.1C3.5,29.4,5.3,29,7.5,29c0.4,0,0.8,0,1.2,0c0.4,0,0.7,0.1,1.1,0.1
	c-0.3,0.6-0.5,1.2-0.6,1.8C9.1,31.5,9,32.1,9,32.7V36H0z M12,36v-3.2c0-1.1,0.3-2,0.9-2.9c0.6-0.9,1.4-1.7,2.5-2.3
	c1.1-0.7,2.3-1.2,3.8-1.5c1.5-0.3,3.1-0.5,4.8-0.5c1.8,0,3.4,0.2,4.9,0.5c1.5,0.3,2.8,0.8,3.8,1.5c1.1,0.7,1.9,1.4,2.5,2.3
	c0.6,0.9,0.8,1.9,0.8,2.9V36H12z M39,36v-3.2c0-0.7-0.1-1.3-0.2-1.9c-0.1-0.6-0.3-1.2-0.6-1.7c0.4-0.1,0.7-0.1,1.1-0.1
	c0.4,0,0.8,0,1.1,0c2.2,0,4.1,0.4,5.4,1.2C47.3,31,48,32,48,33.3V36H39z M15,33h18v-0.3c0-1.2-0.8-2.2-2.5-3
	c-1.7-0.8-3.8-1.2-6.5-1.2s-4.8,0.4-6.5,1.2c-1.7,0.8-2.5,1.8-2.5,3.1V33z M7.5,27.5c-1,0-1.8-0.3-2.5-1C4.3,25.8,4,25,4,24
	c0-1,0.3-1.8,1-2.5c0.7-0.7,1.5-1,2.5-1c1,0,1.8,0.3,2.5,1s1,1.5,1,2.5c0,1-0.3,1.8-1,2.5C9.3,27.2,8.5,27.5,7.5,27.5z M40.5,27.5
	c-1,0-1.8-0.3-2.5-1c-0.7-0.7-1-1.5-1-2.5c0-1,0.3-1.8,1-2.5c0.7-0.7,1.5-1,2.5-1c1,0,1.8,0.3,2.5,1s1,1.5,1,2.5c0,1-0.3,1.8-1,2.5
	C42.3,27.2,41.5,27.5,40.5,27.5z M24,24c-1.7,0-3.1-0.6-4.2-1.8C18.6,21.1,18,19.7,18,18c0-1.7,0.6-3.1,1.8-4.3
	c1.2-1.1,2.6-1.7,4.2-1.7c1.7,0,3.1,0.6,4.3,1.7c1.2,1.1,1.7,2.6,1.7,4.3c0,1.7-0.6,3.1-1.7,4.2C27.1,23.4,25.7,24,24,24z M24,21
	c0.9,0,1.6-0.3,2.1-0.9c0.6-0.6,0.9-1.3,0.9-2.1c0-0.9-0.3-1.6-0.9-2.1C25.6,15.3,24.9,15,24,15s-1.6,0.3-2.1,0.9
	C21.3,16.4,21,17.1,21,18c0,0.8,0.3,1.6,0.9,2.1S23.2,21,24,21z"/>
</svg>
