<?xml version="1.0" encoding="utf-8"?>
<!-- Generator: Adobe Illustrator 25.4.0, SVG Export Plug-In . SVG Version: 6.00 Build 0)  -->
<svg version="1.1" id="Layer_1" xmlns="http://www.w3.org/2000/svg" xmlns:xlink="http://www.w3.org/1999/xlink" x="0px" y="0px"
	 viewBox="0 0 1024 1024" style="enable-background:new 0 0 1024 1024;" xml:space="preserve">
<style type="text/css">
	.st0{fill:#FF615F;stroke:#ADAFBB;stroke-width:2;stroke-linecap:round;stroke-linejoin:round;}
</style>
<path class="st0" d="M512,446.7c63.1,0,114.3-51.2,114.3-114.3S575.1,218.1,512,218.1s-114.3,51.2-114.3,114.3
	S448.9,446.7,512,446.7z"/>
<path class="st0" d="M218,786.4V806h588v-19.6c0-73.2,0-109.8-14.2-137.7c-12.5-24.6-32.5-44.6-57.1-57.1
	c-28-14.2-64.5-14.2-137.7-14.2H427.1c-73.2,0-109.8,0-137.7,14.2c-24.6,12.5-44.6,32.5-57.1,57.1C218,676.6,218,713.2,218,786.4z"
	/>
</svg>
