<?xml version="1.0" encoding="utf-8"?>
<!-- Generator: Adobe Illustrator 25.4.0, SVG Export Plug-In . SVG Version: 6.00 Build 0)  -->
<svg version="1.1" id="Layer_1" xmlns="http://www.w3.org/2000/svg" xmlns:xlink="http://www.w3.org/1999/xlink" x="0px" y="0px"
	 viewBox="0 0 1024 1024" style="enable-background:new 0 0 1024 1024;" xml:space="preserve">
<style type="text/css">
	.st0{fill-rule:evenodd;clip-rule:evenodd;fill:#33CC99;}
</style>
<path class="st0" d="M560.7,271.7c12.8,0,23.1,10.4,23.1,23.1v92.5c0,12.8-10.4,23.1-23.1,23.1s-23.1-10.4-23.1-23.1v-23.1H306.4
	c-12.8,0-23.1-10.4-23.1-23.1s10.4-23.1,23.1-23.1h231.2v-23.1C537.6,282.1,548,271.7,560.7,271.7z M630.1,341.1
	c0-12.8,10.4-23.1,23.1-23.1h69.4c12.8,0,23.1,10.4,23.1,23.1s-10.4,23.1-23.1,23.1h-69.4C640.4,364.2,630.1,353.9,630.1,341.1z
	 M491.4,433.6c12.8,0,23.1,10.4,23.1,23.1v23.1h231.2c12.8,0,23.1,10.4,23.1,23.1S758.4,526,745.7,526H514.5v23.1
	c0,12.8-10.4,23.1-23.1,23.1c-12.8,0-23.1-10.4-23.1-23.1v-92.5C468.2,443.9,478.6,433.6,491.4,433.6z M283.3,502.9
	c0-12.8,10.4-23.1,23.1-23.1h92.5c12.8,0,23.1,10.4,23.1,23.1S411.7,526,398.9,526h-92.5C293.6,526,283.3,515.7,283.3,502.9z
	 M560.7,595.4c12.8,0,23.1,10.4,23.1,23.1V711c0,12.8-10.4,23.1-23.1,23.1s-23.1-10.4-23.1-23.1v-23.1H306.4
	c-12.8,0-23.1-10.4-23.1-23.1s10.4-23.1,23.1-23.1h231.2v-23.1C537.6,605.8,548,595.4,560.7,595.4z M630.1,664.8
	c0-12.8,10.4-23.1,23.1-23.1h69.4c12.8,0,23.1,10.4,23.1,23.1s-10.4,23.1-23.1,23.1h-69.4C640.4,687.9,630.1,677.5,630.1,664.8z"/>
</svg>
